<?xml version="1.0" standalone="no"?>
<!DOCTYPE svg PUBLIC "-//W3C//DTD SVG 20010904//EN"
 "http://www.w3.org/TR/2001/REC-SVG-20010904/DTD/svg10.dtd">
<svg version="1.0" xmlns="http://www.w3.org/2000/svg"
 width="279.000000pt" height="279.000000pt" viewBox="0 0 279.000000 279.000000"
 preserveAspectRatio="xMidYMid meet">
<metadata>
Created by potrace 1.14, written by Peter Selinger 2001-2017
</metadata>
<g transform="translate(0.000000,279.000000) scale(0.100000,-0.100000)"
fill="#000000" stroke="none">
<path d="M1989 2750 c-47 -25 -85 -70 -117 -140 -14 -30 -31 -62 -37 -70 -7
-8 -23 -35 -36 -60 -13 -25 -27 -47 -30 -50 -3 -3 -19 -30 -35 -60 -17 -30
-41 -73 -54 -95 -21 -37 -64 -114 -135 -240 -15 -27 -33 -57 -40 -65 -6 -8
-21 -33 -32 -55 -19 -38 -222 -394 -243 -425 -5 -8 -19 -35 -31 -60 -12 -25
-25 -47 -30 -50 -4 -3 -15 -21 -24 -40 -9 -19 -31 -60 -50 -90 -19 -30 -32
-60 -30 -67 2 -7 0 -15 -5 -18 -6 -4 -10 -26 -10 -51 0 -35 13 -69 61 -161 33
-64 69 -129 80 -144 10 -15 19 -29 19 -32 0 -3 34 -65 75 -138 41 -72 75 -134
75 -138 0 -3 16 -33 36 -66 20 -33 58 -101 85 -152 59 -111 110 -192 135 -214
58 -50 77 -54 316 -57 247 -4 303 4 345 51 60 66 60 127 0 240 -53 100 -175
318 -250 447 -92 160 -116 202 -159 286 l-41 82 32 66 c18 36 37 68 42 71 5 4
9 15 9 26 0 10 4 19 8 19 7 0 56 77 57 90 0 3 9 19 19 35 11 17 29 46 41 65
40 64 67 110 96 168 16 31 48 86 71 122 25 40 43 81 46 107 4 37 1 46 -25 72
-73 73 -151 45 -215 -76 -14 -27 -42 -77 -62 -111 -20 -35 -36 -68 -36 -73 0
-5 -4 -9 -8 -9 -5 0 -16 -17 -26 -37 -10 -21 -43 -80 -73 -130 -30 -51 -56
-99 -57 -107 -1 -8 -8 -22 -16 -31 -16 -18 -49 -74 -96 -160 -22 -39 -28 -63
-27 -110 0 -53 20 -117 42 -135 3 -3 14 -21 25 -40 10 -19 33 -63 52 -98 18
-34 51 -92 72 -130 22 -37 55 -96 74 -132 52 -97 79 -144 89 -156 13 -15 82
-156 85 -171 1 -7 -7 -13 -19 -14 -12 0 -77 -2 -143 -4 l-121 -3 -18 37 c-9
20 -38 72 -65 116 -26 44 -68 118 -94 165 -25 47 -57 103 -69 125 -13 22 -39
67 -57 100 -18 33 -36 65 -40 70 -4 6 -40 69 -80 140 l-71 130 18 35 c10 19
21 38 26 41 4 3 9 15 10 27 0 11 4 19 8 17 3 -3 15 15 25 38 10 23 31 60 45
82 15 22 44 72 64 110 21 39 50 88 64 110 14 22 36 60 49 85 14 25 55 97 93
160 38 64 69 119 69 123 0 4 19 37 42 74 67 111 138 235 138 244 0 5 5 9 10 9
6 0 10 8 10 19 0 10 6 24 13 30 8 6 24 32 38 58 28 58 100 172 108 174 32 7
240 5 254 -3 24 -13 18 -39 -28 -116 -42 -69 -49 -107 -28 -149 18 -39 79 -68
122 -58 27 6 91 67 91 87 0 4 25 49 56 100 31 51 63 110 70 132 29 82 8 161
-55 203 -33 22 -40 23 -295 23 -237 -1 -264 -3 -297 -20z"/>
<path d="M310 2317 c-72 -34 -104 -82 -103 -155 1 -39 7 -62 26 -90 40 -60 97
-152 97 -157 0 -3 23 -42 52 -88 28 -45 62 -99 74 -120 l22 -39 -32 -58 c-17
-33 -55 -100 -83 -150 -29 -50 -53 -92 -53 -94 0 -2 -27 -48 -60 -102 -33 -54
-60 -102 -60 -106 0 -4 -13 -26 -29 -50 -37 -55 -71 -131 -71 -158 0 -27 26
-89 47 -113 42 -46 75 -51 313 -52 237 -1 272 4 332 46 30 22 104 127 95 135
-3 3 5 16 17 29 12 13 32 45 46 72 21 42 52 96 97 168 7 11 24 42 38 68 14 27
43 77 65 112 21 35 36 66 33 69 -4 3 -2 6 4 6 10 0 53 80 57 105 1 6 4 15 7
20 10 19 3 109 -9 113 -7 2 -10 8 -7 13 3 4 -2 23 -11 41 -40 80 -279 472
-298 490 -11 11 -39 29 -61 39 -36 17 -66 18 -280 18 -161 0 -248 -4 -265 -12z
m422 -206 c37 -1 38 -2 109 -123 40 -68 78 -130 86 -139 12 -15 30 -46 89
-156 17 -31 17 -33 -9 -72 -15 -22 -27 -44 -27 -49 0 -5 -23 -47 -51 -93 -28
-46 -74 -124 -103 -174 -28 -49 -58 -103 -68 -120 -10 -16 -31 -55 -48 -85
-50 -90 -51 -90 -121 -94 -35 -2 -68 -5 -74 -6 -5 -1 -12 -1 -15 0 -3 1 -35 3
-72 4 -67 2 -93 11 -71 24 6 4 40 59 75 122 36 63 75 132 86 153 12 20 18 37
14 37 -4 0 -2 4 4 8 12 8 124 191 127 207 1 5 8 16 15 24 8 8 11 22 9 32 -3
11 -1 21 3 24 23 14 -16 160 -54 197 -7 8 -29 41 -47 74 -18 32 -53 91 -77
129 l-43 70 48 5 c43 4 73 5 215 1z"/>
</g>
</svg>
